<svg width="1024" height="1024" viewBox="0 0 1024 1024" fill="none" xmlns="http://www.w3.org/2000/svg">
<rect width="1024" height="1024" rx="512" fill="#04BDB2"/>
<rect x="277" y="252" width="470" height="520" rx="36" stroke="white" stroke-width="40"/>
<path d="M737 769H287V628L461.587 423L581 563.5L637 512L737 628V769Z" fill="white"/>
<circle cx="600" cy="388" r="55" fill="white"/>
<path d="M391.931 670.5L414.586 654.562L427 676.438L402.173 688L427 699.562L414.586 721.438L391.931 705.5L394.414 733H369.586L372.069 705.5L349.414 721.438L337 699.562L361.827 688L337 676.438L349.414 654.562L372.069 670.5L369.586 643H394.414L391.931 670.5Z" fill="#04BDB2"/>
<path d="M521.931 670.5L544.586 654.562L557 676.438L532.173 688L557 699.562L544.586 721.438L521.931 705.5L524.414 733H499.586L502.069 705.5L479.414 721.438L467 699.562L491.827 688L467 676.438L479.414 654.562L502.069 670.5L499.586 643H524.414L521.931 670.5Z" fill="#04BDB2"/>
<path d="M651.931 670.5L674.586 654.562L687 676.438L662.173 688L687 699.562L674.586 721.438L651.931 705.5L654.414 733H629.586L632.069 705.5L609.414 721.438L597 699.562L621.827 688L597 676.438L609.414 654.562L632.069 670.5L629.586 643H654.414L651.931 670.5Z" fill="#04BDB2"/>
</svg>
