<svg width="1024" height="1024" viewBox="0 0 1024 1024" fill="none" xmlns="http://www.w3.org/2000/svg">
	<rect width="1024" height="1024" rx="512" fill="url(#chatai-grad)"/>
	<path d="M446.771 260.895C585.535 223.807 728.337 306.057 765.677 445.073C788.384 530.098 766.182 616.637 713.703 679.459C737.419 734.46 795.701 757.672 841.367 746.066C799.99 757.924 705.63 797.03 627.417 746.823C613.036 753.635 597.646 759.438 581.499 763.727C442.734 801.067 299.933 718.565 262.593 579.801C225.505 440.784 308.007 297.983 446.771 260.895Z" fill="white"/>
	<path d="M438.463 568.035C459.302 562.431 480.676 574.709 486.286 595.79C491.896 616.605 479.606 637.953 458.768 643.557C437.929 649.161 416.289 636.619 410.678 615.804C405.335 594.99 417.625 573.639 438.463 568.035Z" fill="#A41194"/>
	<path d="M540.597 552.725C558.784 547.839 577.436 558.543 582.333 576.693C587.229 594.843 576.503 613.689 558.317 618.576C540.131 623.23 521.478 612.526 516.582 594.376C511.686 576.227 522.411 557.611 540.597 552.725Z" fill="#A41194"/>
	<path d="M625.241 522.276C640.701 518.105 656.56 527.242 660.723 542.734C664.885 558.226 655.768 574.116 640.307 578.287C624.846 582.458 608.791 573.322 604.628 557.83C600.664 542.338 609.78 526.448 625.241 522.276Z" fill="#A41194"/>
	<defs>
		<linearGradient id="chatai-grad" x1="216.579" y1="-1.05162e-05" x2="807.421" y2="1024" gradientUnits="userSpaceOnUse">
			<stop stop-color="#E13781"/>
			<stop offset="1" stop-color="#AD28C8"/>
		</linearGradient>
	</defs>
</svg>
